# xmcd CD database file
#
# Track frame offsets:
#	150
#	900
#	1650
#	2400
#	3150
#	123705
#
# Disc length: 4440 seconds
#
# Revision: 2
# Processed by: cddbd v1.5.1PL2 Copyright (c) Steve Scherf et al.
# Submitted via: CDex 1.51
#
DISCID=28115606
DTITLE=HALCALI - ストロベリーチップス
DYEAR=2003
DGENRE=Pop
TTITLE0=ストロベリーチップス
TTITLE1=二福星
TTITLE2=この世界に、この両手に
TTITLE3=スラローム03' "ゲレンデの女王"
TTITLE4=ストロベリーチップス 2人ともいないバージョン
TTITLE5=???
EXTD=YEAR: 2003
EXTT0=
EXTT1=
EXTT2=
EXTT3=
EXTT4=
EXTT5=
PLAYORDER=
